G04 ---------------------------- Layer name :BOTTOM SOLDER LAYER*
G04 EasyEDA v5.8.19, Fri, 19 Oct 2018 05:21:59 GMT*
G04 8bfcd2fe48ed4f748b2211d8b79e97b7*
G04 Gerber Generator version 0.2*
G04 Scale: 100 percent, Rotated: No, Reflected: No *
G04 Dimensions in millimeters *
G04 leading zeros omitted , absolute positions ,3 integer and 3 decimal *
%FSLAX33Y33*%
%MOMM*%
G90*
G71D02*

%ADD48C,0.803148*%
%ADD49R,1.778000X1.778000*%
%ADD50C,1.778000*%
%ADD54C,1.973199*%
%ADD55R,1.727200X1.727200*%
%ADD56C,1.727200*%
%ADD58C,0.803199*%
%ADD59R,2.703195X3.703066*%
%ADD60R,1.203198X1.703197*%
%ADD61R,1.308100X0.825500*%
%ADD62R,1.363218X1.673098*%
%ADD63R,1.203960X1.303020*%
%ADD64R,3.203194X1.403096*%
%ADD65R,1.403096X3.203194*%

%LPD*%
G54D58*
G01X30031Y33572D02*
G01X29031Y33572D01*
G01X30031Y32302D02*
G01X29031Y32302D01*
G01X30031Y31032D02*
G01X29031Y31032D01*
G01X30031Y29762D02*
G01X29031Y29762D01*
G01X24088Y33572D02*
G01X23088Y33572D01*
G01X24088Y32302D02*
G01X23088Y32302D01*
G01X24088Y31032D02*
G01X23088Y31032D01*
G01X24088Y29762D02*
G01X23088Y29762D01*
G54D59*
G01X26560Y31667D03*
G54D60*
G01X39269Y37159D03*
G01X35209Y37159D03*
G01X39271Y33058D03*
G01X35212Y33058D03*
G54D61*
G01X30130Y14813D03*
G01X30130Y12933D03*
G01X32924Y12933D03*
G01X32924Y13873D03*
G01X32924Y14813D03*
G54D62*
G01X27839Y13359D03*
G01X25807Y13359D03*
G01X34300Y40600D03*
G01X36332Y40600D03*
G01X24699Y23299D03*
G01X22667Y23299D03*
G01X24700Y20299D03*
G01X22668Y20299D03*
G01X28999Y37899D03*
G01X26967Y37899D03*
G01X24700Y26400D03*
G01X22668Y26400D03*
G01X26199Y8199D03*
G01X24167Y8199D03*
G01X14800Y7400D03*
G01X16832Y7400D03*
G01X4301Y7398D03*
G01X2269Y7398D03*
G01X31401Y17098D03*
G01X29369Y17098D03*
G54D63*
G01X31999Y28961D03*
G01X31999Y30638D03*
G54D64*
G01X19698Y27199D03*
G01X19698Y25200D03*
G01X19698Y23200D03*
G01X19698Y21199D03*
G01X19698Y19199D03*
G01X19698Y17199D03*
G01X19698Y15200D03*
G01X19698Y13200D03*
G01X3300Y27199D03*
G01X3300Y25200D03*
G01X3300Y21199D03*
G01X3300Y23200D03*
G01X3300Y19199D03*
G01X3300Y17199D03*
G01X3300Y15200D03*
G01X3300Y13200D03*
G54D65*
G01X8200Y11099D03*
G01X10200Y11099D03*
G01X12199Y11099D03*
G01X14199Y11099D03*
G01X16200Y11099D03*
G01X6200Y11099D03*
G54D48*
G01X36109Y21709D03*
G01X36109Y17711D03*
G54D49*
G01X35901Y11398D03*
G54D50*
G01X38441Y11398D03*
G54D54*
G01X1599Y31059D03*
G01X1599Y33599D03*
G01X1599Y36139D03*
G01X1599Y38679D03*
G54D55*
G01X16091Y37898D03*
G54D56*
G01X18631Y37898D03*
G01X21171Y37898D03*
G01X23711Y37898D03*
M00*
M02*
