;PTH Drill file created by EasyEDA 
M48
METRIC,LZ,000.000
;Holesize 1 = 0.301 METRIC
T01C0.301
;Holesize 2 = 0.305 METRIC
T02C0.305
;Holesize 3 = 0.889 METRIC
T03C0.889
;Holesize 4 = 0.915 METRIC
T04C0.915
%
G05
G90
T01
X+036109Y+021709
X+036109Y+017711
T02
X+013502Y+029598
X+015999Y+018199
X+015999Y+026100
X+020699Y+030400
X+032999Y+037199
X+024698Y+028200
X+028899Y+036100
X+022699Y+018499
X+027800Y+021899
X+034999Y+024299
X+038399Y+025699
X+033500Y+005700
X+022400Y+015199
X+024199Y+010700
X+017599Y+030100
X+017599Y+019100
X+034800Y+031400
X+031999Y+032299
X+022199Y+031899
X+029999Y+027299
X+021500Y+032799
X+031100Y+024299
X+028049Y+025249
X+006999Y+007199
T03
X+035901Y+011398
X+038441Y+011398
T04
X+001599Y+031059
X+001599Y+033599
X+001599Y+036139
X+001599Y+038679
X+016091Y+037898
X+018631Y+037898
X+021171Y+037898
X+023711Y+037898
M30
